<svg width="17" height="16" viewBox="0 0 17 16" fill="none" xmlns="http://www.w3.org/2000/svg">
<path d="M8.10928 0.934228C8.29671 0.357384 9.11279 0.357382 9.30021 0.934226L10.743 5.37474C10.8268 5.63272 11.0672 5.80738 11.3385 5.80738L16.0075 5.80738C16.6141 5.80738 16.8662 6.58352 16.3756 6.94003L12.5982 9.68442C12.3788 9.84385 12.287 10.1265 12.3708 10.3844L13.8136 14.825C14.001 15.4018 13.3408 15.8815 12.8501 15.525L9.07277 12.7806C8.85332 12.6211 8.55617 12.6211 8.33673 12.7806L4.5594 15.525C4.06871 15.8815 3.40848 15.4018 3.59591 14.825L5.03872 10.3844C5.12254 10.1265 5.03072 9.84385 4.81127 9.68442L1.03394 6.94003C0.543249 6.58352 0.795431 5.80738 1.40196 5.80738L6.071 5.80738C6.34225 5.80738 6.58265 5.63272 6.66647 5.37474L8.10928 0.934228Z" fill="url(#paint0_linear_2880_34481)"/>
<defs>
<linearGradient id="paint0_linear_2880_34481" x1="8.70475" y1="-0.898438" x2="-8.51335" y2="22.8938" gradientUnits="userSpaceOnUse">
<stop stop-color="#FE5A5A"/>
<stop offset="1" stop-color="#FE5A5A" stop-opacity="0.21"/>
</linearGradient>
</defs>
</svg>
